<?xml version="1.0" encoding="UTF-8"?>
<svg xmlns="http://www.w3.org/2000/svg" xmlns:xlink="http://www.w3.org/1999/xlink" width="112px" height="55px" viewBox="0 0 112 55" version="1.1">
<g id="surface1">
<path style=" stroke:none;fill-rule:nonzero;fill:rgb(23.137255%,7.058824%,80.784315%);fill-opacity:1;" d="M 33.828125 10.84375 C 31.769531 15.734375 29.585938 19.734375 27.921875 21.582031 L 25.976562 23.738281 L 25.699219 22.402344 C 25.582031 21.652344 25.144531 20.453125 24.828125 19.769531 C 24.46875 19.050781 24.191406 18.09375 24.191406 17.613281 C 24.191406 17.136719 24.035156 16.761719 23.875 16.761719 C 23.675781 16.761719 23.121094 15.90625 22.644531 14.84375 C 21.535156 12.585938 20.109375 11.730469 19.195312 12.792969 C 18.917969 13.167969 18.363281 14.296875 18.046875 15.359375 C 17.6875 16.417969 16.972656 18.46875 16.417969 19.90625 C 15.269531 23.054688 15.230469 24.96875 16.261719 26.917969 C 16.894531 28.148438 17.210938 28.390625 18.164062 28.390625 C 19.988281 28.390625 22.6875 27.429688 24.035156 26.304688 C 24.707031 25.753906 25.34375 25.414062 25.5 25.515625 C 25.976562 25.960938 25.777344 27.15625 25.066406 28.082031 C 22.210938 31.777344 22.367188 31.640625 19.828125 32.324219 C 16.972656 33.074219 15.664062 34.101562 13.882812 36.972656 C 12.769531 38.789062 11.738281 43.300781 12.175781 44.363281 C 12.570312 45.21875 13.285156 44.773438 14 43.300781 C 14.398438 42.515625 15.707031 40.769531 16.933594 39.503906 C 18.164062 38.238281 19.910156 36.222656 20.820312 35.09375 C 22.089844 33.453125 22.6875 33.007812 23.519531 33.007812 L 24.550781 32.972656 L 23.121094 34.375 C 22.328125 35.128906 21.457031 35.878906 21.140625 36.015625 C 20.464844 36.359375 20.464844 36.941406 21.140625 36.941406 C 21.375 36.941406 22.527344 36.121094 23.597656 35.058594 L 25.582031 33.179688 L 27.5625 33.453125 C 30.140625 33.828125 32.046875 33.382812 32.601562 32.324219 C 32.957031 31.640625 33.15625 31.570312 33.789062 31.84375 C 35.179688 32.492188 36.25 31.777344 37.042969 29.6875 C 37.320312 28.9375 38.46875 29.277344 41.128906 30.816406 C 42.714844 31.777344 43.148438 31.878906 44.777344 31.707031 C 45.769531 31.570312 47.035156 31.363281 47.59375 31.226562 C 48.304688 31.058594 47.472656 32.015625 44.5 34.71875 C 40.730469 38.171875 40.414062 38.546875 40.53125 39.640625 C 40.691406 41.351562 41.960938 41.457031 44.023438 39.949219 C 44.855469 39.300781 46.085938 38.546875 46.679688 38.308594 C 47.273438 38.035156 48.582031 37.144531 49.574219 36.359375 C 50.566406 35.570312 52.90625 33.792969 54.808594 32.425781 C 56.714844 31.058594 58.339844 29.6875 58.457031 29.414062 C 58.578125 29.140625 59.332031 28.457031 60.125 27.910156 C 61.433594 27.019531 61.871094 26.917969 65.28125 26.816406 C 68.570312 26.714844 69.128906 26.78125 69.800781 27.363281 C 70.238281 27.738281 70.753906 28.046875 70.953125 28.046875 C 71.386719 28.046875 71.785156 28.902344 71.785156 29.859375 C 71.785156 30.269531 70.871094 32.152344 69.800781 34 C 68.730469 35.847656 67.699219 37.933594 67.582031 38.617188 C 67.421875 39.300781 67.066406 40.15625 66.789062 40.53125 C 66.152344 41.285156 65.996094 43.097656 66.589844 42.582031 C 67.027344 42.171875 70.992188 35.433594 70.992188 35.09375 C 70.992188 34.957031 71.347656 34.445312 71.746094 33.929688 C 72.140625 33.417969 72.617188 32.355469 72.738281 31.535156 C 72.972656 30.167969 74.203125 27.945312 77.734375 22.472656 C 78.40625 21.410156 78.84375 20.523438 78.644531 20.523438 C 78.488281 20.523438 78.527344 20.386719 78.726562 20.25 C 79.359375 19.871094 81.460938 17.410156 82.097656 16.316406 C 82.730469 15.1875 83.167969 15.597656 83.484375 17.648438 C 83.921875 20.25 84.117188 20.796875 84.992188 21.480469 C 85.863281 22.199219 89.195312 23.566406 90.625 23.804688 C 93.480469 24.320312 95.582031 24.457031 96.492188 24.25 C 97.085938 24.113281 97.5625 24.148438 97.5625 24.320312 C 97.5625 24.488281 97.839844 24.625 98.160156 24.625 C 98.992188 24.625 99.386719 23.636719 98.832031 22.882812 C 98.4375 22.335938 98.476562 22.164062 99.148438 21.820312 C 99.984375 21.378906 100.222656 20.523438 99.546875 20.523438 C 99.109375 20.523438 97.285156 22.539062 97.484375 22.8125 C 97.761719 23.222656 96.53125 23.601562 94.984375 23.601562 C 91.695312 23.601562 86.023438 21.753906 85.230469 20.453125 C 84.992188 20.042969 84.632812 18.742188 84.476562 17.511719 C 84.117188 15.117188 83.40625 14.160156 82.253906 14.503906 C 81.5 14.707031 80.390625 16.347656 75.632812 24.113281 C 72.933594 28.457031 72.578125 28.867188 72.578125 27.636719 C 72.578125 27.125 72.457031 26.644531 72.261719 26.542969 C 71.308594 26.0625 63.375 25.789062 62.542969 26.234375 C 61.988281 26.542969 63.140625 24.933594 65.082031 22.710938 C 66.113281 21.582031 67.222656 20.179688 67.542969 19.597656 C 67.898438 19.050781 68.808594 17.921875 69.5625 17.136719 C 70.714844 15.9375 70.992188 15.390625 70.992188 14.195312 C 70.992188 13.238281 70.792969 12.65625 70.4375 12.554688 C 69.523438 12.246094 66.511719 14.125 64.804688 16.042969 C 63.972656 17.035156 62.148438 18.878906 60.839844 20.179688 C 58.417969 22.507812 57.625 23.773438 58.339844 24.148438 C 58.539062 24.25 59.015625 23.839844 59.410156 23.222656 C 59.769531 22.609375 60.878906 21.308594 61.871094 20.351562 C 62.859375 19.429688 64.449219 17.75 65.359375 16.691406 C 66.867188 14.914062 68.691406 13.679688 69.800781 13.679688 C 70.632812 13.679688 70.160156 15.324219 68.890625 16.625 C 68.136719 17.339844 67.144531 18.574219 66.589844 19.324219 C 66.074219 20.078125 64.566406 21.957031 63.257812 23.5 C 61.273438 25.824219 60.640625 26.335938 59.488281 26.507812 C 58.738281 26.644531 56.59375 27.292969 54.730469 27.945312 C 48.78125 30.03125 44.457031 31.195312 43.429688 30.988281 C 42.914062 30.886719 42.160156 30.476562 41.761719 30.132812 C 41.128906 29.585938 37.597656 28.046875 36.921875 28.046875 C 36.804688 28.046875 36.367188 28.730469 35.972656 29.585938 C 35.140625 31.261719 34.742188 31.398438 33.394531 30.578125 C 32.085938 29.792969 31.210938 30.203125 31.410156 31.46875 C 31.609375 32.699219 30.855469 33.007812 28.316406 32.664062 C 26.613281 32.460938 26.136719 32.082031 27.007812 31.605469 C 27.324219 31.433594 27.40625 30.648438 27.207031 29.109375 C 27.007812 27.261719 27.128906 26.609375 27.722656 25.652344 C 30.101562 21.925781 30.777344 20.660156 32.402344 16.929688 C 33.394531 14.671875 34.304688 12.3125 34.503906 11.699219 C 34.820312 10.535156 34.265625 9.78125 33.828125 10.84375 Z M 22.089844 15.769531 C 22.804688 16.964844 23.359375 18.332031 23.320312 18.8125 C 23.28125 19.292969 23.519531 20.113281 23.875 20.695312 C 24.230469 21.242188 24.628906 22.335938 24.746094 23.085938 C 24.984375 24.320312 24.90625 24.558594 23.835938 25.449219 C 22.40625 26.609375 18.757812 27.773438 17.847656 27.363281 C 16.65625 26.816406 16.101562 24.59375 16.65625 22.539062 C 17.171875 20.589844 19.394531 14.023438 19.710938 13.578125 C 20.109375 12.964844 20.902344 13.679688 22.089844 15.769531 Z M 27.921875 23.601562 C 27.207031 24.695312 26.730469 25.175781 26.53125 24.933594 C 26.292969 24.59375 28.355469 21.925781 28.871094 21.890625 C 28.953125 21.890625 28.515625 22.675781 27.921875 23.601562 Z M 58.222656 28.355469 C 54.890625 31.742188 43.230469 40.019531 41.761719 40.019531 C 40.375 40.019531 41.644531 38.375 45.769531 34.71875 C 50.210938 30.785156 50.289062 30.75 51.714844 30.953125 C 53.5 31.261719 54.53125 30.679688 53.898438 29.722656 C 53.621094 29.246094 53.660156 29.003906 54.015625 28.902344 C 55.367188 28.457031 58.894531 27.398438 59.015625 27.363281 C 59.09375 27.363281 58.738281 27.808594 58.222656 28.355469 Z M 25.820312 31.398438 C 25.542969 31.878906 25.105469 32.015625 24.429688 31.914062 L 23.4375 31.742188 L 24.707031 30.132812 L 25.976562 28.527344 L 26.097656 29.65625 C 26.175781 30.269531 26.058594 31.058594 25.820312 31.398438 Z M 20.582031 33.929688 C 20.304688 34.375 19.117188 35.847656 17.886719 37.214844 C 16.65625 38.582031 15.070312 40.429688 14.316406 41.320312 L 12.96875 42.925781 L 13.246094 41.042969 C 13.445312 39.882812 14.078125 38.34375 14.871094 37.078125 C 16.023438 35.296875 16.578125 34.820312 18.324219 34.101562 C 20.941406 33.007812 21.179688 32.972656 20.582031 33.929688 Z M 20.582031 33.929688 "/>
<path style=" stroke:none;fill-rule:nonzero;fill:rgb(23.137255%,7.058824%,80.784315%);fill-opacity:1;" d="M 51.953125 21.71875 C 51.953125 21.992188 52.230469 22.234375 52.589844 22.234375 C 53.144531 22.234375 53.144531 22.128906 52.746094 21.71875 C 52.46875 21.445312 52.191406 21.207031 52.113281 21.207031 C 52.035156 21.207031 51.953125 21.445312 51.953125 21.71875 Z M 51.953125 21.71875 "/>
<path style=" stroke:none;fill-rule:nonzero;fill:rgb(23.137255%,7.058824%,80.784315%);fill-opacity:1;" d="M 30.933594 25.140625 C 30.933594 25.414062 31.210938 25.652344 31.53125 25.652344 C 31.886719 25.652344 32.003906 25.449219 31.886719 25.140625 C 31.726562 24.867188 31.488281 24.625 31.292969 24.625 C 31.09375 24.625 30.933594 24.867188 30.933594 25.140625 Z M 30.933594 25.140625 "/>
</g>
</svg>
